<svg width="24" height="24" viewBox="0 0 24 24" fill="none" xmlns="http://www.w3.org/2000/svg">
<path d="M22.579 17.2546H21.9496V5.85723C21.949 5.24077 21.7039 4.64971 21.268 4.21381C20.8321 3.7779 20.241 3.53277 19.6246 3.53223H4.37594C3.75949 3.53282 3.16847 3.77797 2.73257 4.21386C2.29668 4.64975 2.05153 5.24078 2.05094 5.85723V17.2546H1.42188C1.33485 17.2546 1.25139 17.2892 1.18986 17.3507C1.12832 17.4122 1.09375 17.4957 1.09375 17.5827V18.827C1.09425 19.2619 1.26726 19.679 1.57483 19.9865C1.8824 20.2941 2.29941 20.4671 2.73438 20.4676H21.2665C21.7015 20.4671 22.1185 20.2941 22.4261 19.9865C22.7336 19.679 22.9066 19.2619 22.9071 18.827V17.5827C22.9071 17.4957 22.8726 17.4122 22.811 17.3507C22.7495 17.2892 22.666 17.2546 22.579 17.2546ZM2.70738 5.85723C2.70782 5.41478 2.88378 4.99059 3.19663 4.67774C3.50949 4.36488 3.93368 4.18892 4.37613 4.18848H19.6251C20.0676 4.18892 20.4918 4.36488 20.8046 4.67774C21.1175 4.99059 21.2934 5.41478 21.2939 5.85723V17.2546H2.70738V5.85723ZM14.7344 17.9279C14.6663 18.1197 14.5405 18.2857 14.3744 18.4032C14.2082 18.5207 14.0098 18.5839 13.8063 18.5842H10.1946C9.99112 18.5839 9.79268 18.5207 9.62651 18.4032C9.46035 18.2857 9.33459 18.1197 9.2665 17.9279H14.7344ZM22.2509 18.8279C22.2506 19.0889 22.1468 19.3391 21.9622 19.5236C21.7777 19.7082 21.5275 19.812 21.2665 19.8123H2.73438C2.47339 19.812 2.22319 19.7082 2.03865 19.5236C1.8541 19.3391 1.7503 19.0889 1.75 18.8279V17.9109C1.95119 17.9088 8.18612 17.9124 8.58437 17.9109C8.65702 18.2848 8.85735 18.6219 9.15108 18.8644C9.44482 19.1069 9.8137 19.2398 10.1946 19.2404H13.8063C14.1872 19.2399 14.556 19.107 14.8497 18.8644C15.1435 18.6219 15.3437 18.2848 15.4163 17.9109H22.2509V18.8279Z" fill="white" stroke="white" stroke-width="0.1"/>
<path d="M14.037 5.46776C11.6515 5.42613 10.0442 8.13513 11.2198 10.2061L6.85108 14.5748C6.82058 14.6053 6.79639 14.6414 6.77989 14.6813C6.76338 14.7211 6.75488 14.7638 6.75488 14.8069C6.75488 14.85 6.76338 14.8926 6.77989 14.9324C6.79639 14.9723 6.82058 15.0084 6.85108 15.0389L7.67608 15.8639C7.70652 15.8944 7.74267 15.9186 7.78247 15.9351C7.82227 15.9516 7.86493 15.9601 7.90802 15.9601C7.9511 15.9601 7.99376 15.9516 8.03356 15.9351C8.07336 15.9186 8.10951 15.8944 8.13996 15.8639L8.68989 15.3141L9.28483 15.9091C9.34636 15.9706 9.42979 16.0051 9.51677 16.0051C9.60375 16.0051 9.68718 15.9706 9.74871 15.9091L10.5437 15.1139C10.5742 15.0834 10.5984 15.0473 10.6149 15.0075C10.6314 14.9677 10.6399 14.925 10.6399 14.8819C10.6399 14.8389 10.6314 14.7962 10.6149 14.7564C10.5984 14.7166 10.5742 14.6805 10.5437 14.65L9.94877 14.0549L10.2748 13.7279L10.8713 14.3232C10.9328 14.3846 11.0162 14.4191 11.1031 14.4191C11.1901 14.4191 11.2734 14.3846 11.335 14.3232L12.13 13.528C12.1605 13.4976 12.1846 13.4614 12.2011 13.4216C12.2176 13.3818 12.2261 13.3392 12.2261 13.2961C12.2261 13.253 12.2176 13.2103 12.2011 13.1705C12.1846 13.1307 12.1605 13.0946 12.13 13.0641L11.5346 12.469L12.507 11.4951C12.9759 11.7523 13.5022 11.8867 14.037 11.8859C18.2918 11.7113 18.298 5.64401 14.037 5.46776ZM14.037 11.2296C13.5291 11.2293 13.0329 11.0771 12.612 10.7928C12.5495 10.7605 12.4785 10.7486 12.409 10.7587C12.3394 10.7688 12.2747 10.8004 12.2239 10.849L10.8385 12.2365C10.808 12.2669 10.7838 12.3031 10.7673 12.3429C10.7509 12.3827 10.7424 12.4253 10.7424 12.4684C10.7424 12.5114 10.7509 12.5541 10.7673 12.5938C10.7838 12.6336 10.808 12.6698 10.8385 12.7002L11.4334 13.2951L11.1021 13.6264L10.5056 13.0315C10.4752 13.001 10.439 12.9769 10.3992 12.9604C10.3594 12.9439 10.3167 12.9354 10.2736 12.9354C10.2305 12.9354 10.1879 12.9439 10.148 12.9604C10.1082 12.9769 10.0721 13.001 10.0416 13.0315L9.25221 13.8228C9.19073 13.8843 9.1562 13.9676 9.1562 14.0546C9.1562 14.1416 9.19073 14.2249 9.25221 14.2864L9.84715 14.8814L9.51639 15.2133L8.92146 14.6183C8.891 14.5878 8.85483 14.5636 8.81502 14.5471C8.7752 14.5306 8.73252 14.5221 8.68942 14.5221C8.64632 14.5221 8.60365 14.5306 8.56383 14.5471C8.52402 14.5636 8.48785 14.5878 8.45739 14.6183L7.90764 15.169L7.54652 14.8071L11.8652 10.4886C11.9188 10.4351 11.9522 10.3646 11.9598 10.2892C11.9673 10.2138 11.9486 10.1381 11.9066 10.075C11.6318 9.66024 11.4858 9.17344 11.487 8.67588C11.4876 7.99958 11.7563 7.3511 12.2344 6.8727C12.7124 6.3943 13.3607 6.12505 14.037 6.12401C17.4252 6.26426 17.4238 11.0892 14.037 11.2296Z" fill="white" stroke="white" stroke-width="0.1"/>
<path d="M14.717 6.81592C14.3894 6.81592 14.0752 6.94578 13.8433 7.17705C13.6113 7.40831 13.4805 7.72211 13.4795 8.04967C13.5376 9.6858 15.893 9.68917 15.9507 8.04967C15.9503 7.72258 15.8202 7.409 15.5889 7.17771C15.3577 6.94643 15.0441 6.81631 14.717 6.81592ZM14.717 8.63092C14.5633 8.63092 14.416 8.56988 14.3073 8.46123C14.1987 8.35257 14.1376 8.2052 14.1376 8.05154C14.1376 7.89788 14.1987 7.75052 14.3073 7.64186C14.416 7.53321 14.5633 7.47217 14.717 7.47217C14.8707 7.47217 15.018 7.53321 15.1267 7.64186C15.2353 7.75052 15.2964 7.89788 15.2964 8.05154C15.2964 8.2052 15.2353 8.35257 15.1267 8.46123C15.018 8.56988 14.8707 8.63092 14.717 8.63092Z" fill="white" stroke="white" stroke-width="0.1"/>
</svg>
