<svg width="24" height="24" viewBox="0 0 24 24" fill="none" xmlns="http://www.w3.org/2000/svg">
<path d="M5.14599 6.42422V4.83692C5.14599 4.47881 4.85567 4.18848 4.49755 4.18848C4.13944 4.18848 3.84911 4.47881 3.84911 4.83692V6.42422C3.0581 6.53515 2.44727 7.21592 2.44727 8.03711V16.7455C2.44727 17.5666 3.05805 18.2474 3.84911 18.3584V19.9457C3.84911 20.3038 4.13944 20.5941 4.49755 20.5941C4.85567 20.5941 5.14599 20.3038 5.14599 19.9457V18.3584C5.93701 18.2474 6.54784 17.5667 6.54784 16.7455V8.03707C6.54784 7.21592 5.93701 6.53515 5.14599 6.42422ZM5.25096 16.7455C5.25096 16.9286 5.10194 17.0776 4.91878 17.0776H4.07632C3.8932 17.0776 3.74415 16.9286 3.74415 16.7455V8.03707C3.74415 7.85395 3.89316 7.70489 4.07632 7.70489H4.91878C5.1019 7.70489 5.25096 7.8539 5.25096 8.03707V16.7455Z" fill="white"/>
<path d="M15.1499 5.36318V3.77588C15.1499 3.41777 14.8596 3.12744 14.5014 3.12744C14.1433 3.12744 13.853 3.41777 13.853 3.77588V5.36318C13.062 5.47411 12.4512 6.15493 12.4512 6.97607V13.1357C12.4512 13.9568 13.062 14.6376 13.853 14.7486V21.3521C13.853 21.7103 14.1433 22.0006 14.5014 22.0006C14.8596 22.0006 15.1499 21.7103 15.1499 21.3521V14.7486C15.9409 14.6377 16.5518 13.9568 16.5518 13.1357V6.97607C16.5518 6.15497 15.9409 5.47415 15.1499 5.36318ZM15.2549 13.1357C15.2549 13.3188 15.1059 13.4679 14.9227 13.4679H14.0802C13.8971 13.4679 13.748 13.3189 13.748 13.1357V6.97607C13.748 6.79295 13.8971 6.6439 14.0802 6.6439H14.9227C15.1058 6.6439 15.2549 6.79291 15.2549 6.97607V13.1357Z" fill="white"/>
<path d="M10.1479 4.23574V2.64844C10.1479 2.29033 9.85762 2 9.49951 2C9.14139 2 8.85106 2.29033 8.85106 2.64844V4.23574C8.06005 4.34667 7.44922 5.02749 7.44922 5.84863V12.7909C7.44922 13.6121 8.06001 14.2929 8.85106 14.4038V15.9911C8.85106 16.3492 9.14139 16.6396 9.49951 16.6396C9.85762 16.6396 10.1479 16.3492 10.1479 15.9911V14.4038C10.939 14.2929 11.5498 13.6121 11.5498 12.7909V5.84859C11.5498 5.02749 10.939 4.34667 10.1479 4.23574ZM10.2529 12.7909C10.2529 12.9741 10.1039 13.1231 9.92073 13.1231H9.07828C8.89516 13.1231 8.7461 12.9741 8.7461 12.7909V5.84859C8.7461 5.66547 8.89512 5.51642 9.07828 5.51642H9.92073C10.1039 5.51642 10.2529 5.66543 10.2529 5.84859V12.7909Z" fill="white"/>
<path d="M20.1499 8.40592V3.5337C20.1499 3.17558 19.8596 2.88525 19.5015 2.88525C19.1433 2.88525 18.853 3.17558 18.853 3.5337V8.40587C18.062 8.5168 17.4512 9.19762 17.4512 10.0188V16.9611C17.4512 17.7823 18.062 18.463 18.853 18.574V20.1613C18.853 20.5194 19.1433 20.8098 19.5015 20.8098C19.8596 20.8098 20.1499 20.5194 20.1499 20.1613V18.574C20.941 18.4631 21.5518 17.7823 21.5518 16.9611V10.0188C21.5518 9.19767 20.941 8.5168 20.1499 8.40592ZM20.2549 16.9611C20.2549 17.1442 20.1059 17.2933 19.9227 17.2933H19.0802C18.8971 17.2933 18.7481 17.1443 18.7481 16.9611V10.0188C18.7481 9.83565 18.8971 9.68659 19.0802 9.68659H19.9227C20.1059 9.68659 20.2549 9.8356 20.2549 10.0188V16.9611Z" fill="white"/>
</svg>
