<svg width="1920" height="859" viewBox="0 0 1920 859" fill="none" xmlns="http://www.w3.org/2000/svg">
<g clip-path="url(#clip0)">
<g opacity="0.9">
<rect opacity="0.1" width="141" height="581" transform="matrix(-1 0 0 1 1968 254)" fill="url(#paint0_linear)"/>
<rect opacity="0.1" width="141" height="581" transform="matrix(-1 0 0 1 1707 254)" fill="url(#paint1_linear)"/>
<rect opacity="0.1" width="141" height="581" transform="matrix(-1 0 0 1 1446 254)" fill="url(#paint2_linear)"/>
<rect opacity="0.1" width="141" height="581" transform="matrix(-1 0 0 1 1185 254)" fill="url(#paint3_linear)"/>
<rect opacity="0.1" width="141" height="421" transform="matrix(-1 0 0 1 924 414)" fill="url(#paint4_linear)"/>
<rect opacity="0.1" width="141" height="469" transform="matrix(-1 0 0 1 663 366)" fill="url(#paint5_linear)"/>
<rect opacity="0.1" width="141" height="469" transform="matrix(-1 0 0 1 402 366)" fill="url(#paint6_linear)"/>
<rect opacity="0.1" width="141" height="469" transform="matrix(-1 0 0 1 141 366)" fill="url(#paint7_linear)"/>
<mask id="mask0" mask-type="alpha" maskUnits="userSpaceOnUse" x="-1194" y="-649" width="4427" height="4406">
<path d="M294.411 204.094C169.464 222.393 60.4957 298.619 0.463652 409.717L-641.122 1597.06C-713.056 1730.19 -703.713 1892.51 -616.978 2016.5L23.8573 2932.6C110.592 3056.6 259.868 3121.03 409.586 3099.1L1744.94 2903.54C1869.89 2885.24 1978.86 2809.01 2038.89 2697.92L2680.48 1510.57C2752.41 1377.45 2743.07 1215.13 2656.33 1091.14L2015.5 175.028C1928.76 51.0372 1779.49 -13.3974 1629.77 8.52918L294.411 204.094Z" fill="#EEF3F7"/>
<path d="M294.411 204.094C169.464 222.393 60.4957 298.619 0.463652 409.717L-641.122 1597.06C-713.056 1730.19 -703.713 1892.51 -616.978 2016.5L23.8573 2932.6C110.592 3056.6 259.868 3121.03 409.586 3099.1L1744.94 2903.54C1869.89 2885.24 1978.86 2809.01 2038.89 2697.92L2680.48 1510.57C2752.41 1377.45 2743.07 1215.13 2656.33 1091.14L2015.5 175.028C1928.76 51.0372 1779.49 -13.3974 1629.77 8.52918L294.411 204.094Z" fill="url(#paint8_linear)"/>
</mask>
<g mask="url(#mask0)">
<path d="M294.411 204.094C169.464 222.393 60.4957 298.619 0.463652 409.717L-641.122 1597.06C-713.056 1730.19 -703.713 1892.51 -616.978 2016.5L23.8573 2932.6C110.592 3056.6 259.868 3121.03 409.586 3099.1L1744.94 2903.54C1869.89 2885.24 1978.86 2809.01 2038.89 2697.92L2680.48 1510.57C2752.41 1377.45 2743.07 1215.13 2656.33 1091.14L2015.5 175.028C1928.76 51.0372 1779.49 -13.3974 1629.77 8.52918L294.411 204.094Z" fill="#EEF3F7"/>
<path d="M294.411 204.094C169.464 222.393 60.4957 298.619 0.463652 409.717L-641.122 1597.06C-713.056 1730.19 -703.713 1892.51 -616.978 2016.5L23.8573 2932.6C110.592 3056.6 259.868 3121.03 409.586 3099.1L1744.94 2903.54C1869.89 2885.24 1978.86 2809.01 2038.89 2697.92L2680.48 1510.57C2752.41 1377.45 2743.07 1215.13 2656.33 1091.14L2015.5 175.028C1928.76 51.0372 1779.49 -13.3974 1629.77 8.52918L294.411 204.094Z" fill="url(#paint9_linear)"/>
</g>
</g>
<path d="M-64.3759 498.143L-35.1981 498.143L-35.1981 561.107H-64.3759L-64.3759 498.143Z" fill="white" fill-opacity="0.06"/>
<path d="M-33.5731 496.504H-66L-66 562.742H-33.5731L-33.5731 496.504ZM-62.7509 499.778H-36.8222L-36.8222 559.468H-62.7509L-62.7509 499.778Z" fill="white" fill-opacity="0.06"/>
<path d="M-48.1608 498.141H-51.4099L-51.4099 486.272H-48.1608V498.141Z" fill="white" fill-opacity="0.06"/>
<path d="M-48.1608 580.857H-51.4099L-51.4099 561.094H-48.1608L-48.1608 580.857Z" fill="white" fill-opacity="0.06"/>
<path d="M-18.491 561.093H10.6868V586.457H-18.491V561.093Z" fill="white" fill-opacity="0.06"/>
<path d="M12.321 559.457L-20.1059 559.457L-20.1059 588.095H12.321L12.321 559.457ZM-16.8568 562.731H9.07194L9.07192 584.821H-16.8568L-16.8568 562.731Z" fill="white" fill-opacity="0.06"/>
<path d="M-2.26668 561.094H-5.51578L-5.51577 543.441H-2.26667L-2.26668 561.094Z" fill="white" fill-opacity="0.06"/>
<path d="M-2.26669 620.686H-5.51579L-5.51579 586.469H-2.26669L-2.26669 620.686Z" fill="white" fill-opacity="0.06"/>
<path d="M27.4039 664.789H56.5817V693.05H27.4039L27.4039 664.789Z" fill="white" fill-opacity="0.06"/>
<path d="M58.2026 663.153H25.7758L25.7757 694.689H58.2026L58.2026 663.153ZM29.0249 666.427L54.9535 666.427L54.9535 691.404H29.0248L29.0249 666.427Z" fill="white" fill-opacity="0.06"/>
<path d="M43.6149 664.79H40.3658V647.138H43.6149V664.79Z" fill="white" fill-opacity="0.06"/>
<path d="M43.6149 753.29H40.3658L40.3658 693.041H43.6149L43.6149 753.29Z" fill="white" fill-opacity="0.06"/>
<path d="M73.2878 693.042L102.466 693.042L102.466 744.438H73.2878V693.042Z" fill="white" fill-opacity="0.06"/>
<path d="M104.096 691.404H71.6689V746.074H104.096V691.404ZM74.918 694.678H100.847L100.847 742.8H74.918L74.918 694.678Z" fill="white" fill-opacity="0.06"/>
<path d="M89.508 693.041H86.2589V623.335H89.5081L89.508 693.041Z" fill="white" fill-opacity="0.06"/>
<path d="M89.508 790.221H86.2589L86.2589 744.437H89.508V790.221Z" fill="white" fill-opacity="0.06"/>
<path d="M165.071 692.386H194.249L194.249 755.349H165.071L165.071 692.386Z" fill="white" fill-opacity="0.06"/>
<path d="M195.874 690.747H163.447V756.974H195.874V690.747ZM166.696 694.021H192.625L192.624 753.699L166.696 753.699L166.696 694.021Z" fill="white" fill-opacity="0.06"/>
<path d="M181.286 692.384H178.037V670.789H181.286V692.384Z" fill="white" fill-opacity="0.06"/>
<path d="M181.286 763.533H178.037V755.336H181.286V763.533Z" fill="white" fill-opacity="0.06"/>
<path d="M210.958 678.581H240.136V692.378H210.958V678.581Z" fill="white" fill-opacity="0.06"/>
<path d="M241.768 676.95H209.341V694.021H241.768V676.95ZM212.59 680.224H238.519V690.747H212.59V680.224Z" fill="white" fill-opacity="0.06"/>
<path d="M227.179 678.587H223.93V648.312H227.179V678.587Z" fill="white" fill-opacity="0.06"/>
<path d="M227.179 732.385H223.93V692.384H227.179L227.179 732.385Z" fill="white" fill-opacity="0.06"/>
<path d="M256.852 678.587H286.029L286.029 712.632H256.852V678.587Z" fill="white" fill-opacity="0.06"/>
<path d="M287.649 676.95H255.223V714.269H287.649V676.95ZM258.472 680.224H284.4L284.4 710.984H258.472V680.224Z" fill="white" fill-opacity="0.06"/>
<path d="M273.062 678.587H269.813V665.663H273.062V678.587Z" fill="white" fill-opacity="0.06"/>
<path d="M273.062 723.715H269.813V712.632H273.062V723.715Z" fill="white" fill-opacity="0.06"/>
<path d="M302.738 594.721H331.915V712.624H302.738V594.721Z" fill="white" fill-opacity="0.06"/>
<path d="M333.544 593.082H301.117V714.258H333.544L333.544 593.082ZM304.366 596.356H330.294L330.294 710.984H304.366L304.366 596.356Z" fill="white" fill-opacity="0.06"/>
<path d="M318.956 594.719H315.707V576.01H318.956V594.719Z" fill="white" fill-opacity="0.06"/>
<path d="M318.956 746.849H315.707L315.707 712.632H318.956L318.956 746.849Z" fill="white" fill-opacity="0.06"/>
<path d="M348.623 517.298H377.801L377.801 594.715H348.623L348.623 517.298Z" fill="white" fill-opacity="0.06"/>
<path d="M379.426 515.665H346.999V596.356H379.426V515.665ZM350.259 518.939H376.188L376.188 593.082H350.259V518.939Z" fill="white" fill-opacity="0.06"/>
<path d="M364.839 517.302H361.59V456.439H364.839V517.302Z" fill="white" fill-opacity="0.06"/>
<path d="M364.839 637.175H361.59V594.719H364.839L364.839 637.175Z" fill="white" fill-opacity="0.06"/>
<path d="M394.521 517.302H423.698V568.697H394.521L394.521 517.302Z" fill="white" fill-opacity="0.06"/>
<path d="M425.321 515.664H392.895V570.324H425.321V515.664ZM396.144 518.939L422.072 518.939V567.06H396.144V518.939Z" fill="white" fill-opacity="0.06"/>
<path d="M410.734 517.302H407.485V424.623H410.734V517.302Z" fill="white" fill-opacity="0.06"/>
<path d="M410.734 582.236H407.485V568.697H410.734V582.236Z" fill="white" fill-opacity="0.06"/>
<path d="M469.588 568.687L440.41 568.687V540.426H469.588V568.687Z" fill="white" fill-opacity="0.06"/>
<path d="M471.213 538.799H438.785V570.324L471.213 570.324V538.799ZM442.035 542.073H467.963V567.05H442.035V542.073Z" fill="white" fill-opacity="0.06"/>
<path d="M456.625 603.141L453.376 603.141V568.698H456.625V603.141Z" fill="white" fill-opacity="0.06"/>
<path d="M456.625 540.436H453.376V516.515H456.625V540.436Z" fill="white" fill-opacity="0.06"/>
<path d="M515.472 540.436H486.294V509.289H515.472V540.436Z" fill="white" fill-opacity="0.06"/>
<path d="M517.096 507.651H484.669L484.669 542.073H517.096V507.651ZM487.918 510.926L513.847 510.926V538.799H487.918V510.926Z" fill="white" fill-opacity="0.06"/>
<path d="M502.508 580.663H499.259V540.436H502.508V580.663Z" fill="white" fill-opacity="0.06"/>
<path d="M502.508 509.288H499.259V494.048H502.508V509.288Z" fill="white" fill-opacity="0.06"/>
<path d="M561.367 509.288H532.189V492.595H561.367V509.288Z" fill="white" fill-opacity="0.06"/>
<path d="M562.99 490.957H530.563V510.926H562.99V490.957ZM533.813 494.232H559.741V507.641H533.813V494.232Z" fill="white" fill-opacity="0.06"/>
<path d="M548.403 529.267H545.153V509.278H548.403V529.267Z" fill="white" fill-opacity="0.06"/>
<path d="M548.403 492.595H545.153L545.154 465.787H548.403V492.595Z" fill="white" fill-opacity="0.06"/>
<path d="M607.259 492.595H578.081L578.081 337.093H607.259V492.595Z" fill="white" fill-opacity="0.06"/>
<path d="M608.873 335.456L576.446 335.456L576.446 494.232L608.873 494.232L608.873 335.456ZM579.706 338.73H605.635V490.958H579.706V338.73Z" fill="white" fill-opacity="0.06"/>
<path d="M594.285 509.687H591.036V492.595H594.285V509.687Z" fill="white" fill-opacity="0.06"/>
<path d="M594.285 337.093H591.036V324.739H594.285V337.093Z" fill="white" fill-opacity="0.06"/>
<path d="M119.187 744.44H148.365V755.351H119.187V744.44Z" fill="white" fill-opacity="0.06"/>
<path d="M149.98 742.8H117.554V756.973H149.98V742.8ZM120.813 746.074H146.742V753.699H120.813V746.074Z" fill="white" fill-opacity="0.06"/>
<path d="M135.393 744.437H132.144V726.601H135.393V744.437Z" fill="white" fill-opacity="0.06"/>
<path d="M135.393 858.968H132.144L132.144 755.336H135.393V858.968Z" fill="white" fill-opacity="0.06"/>
<path d="M653.643 585.801L624.466 585.801V337.093H653.643L653.643 585.801Z" fill="white" fill-opacity="0.06"/>
<path d="M655.268 335.456L622.841 335.456L622.841 587.438H655.268V335.456ZM626.09 338.73H652.019V584.164H626.09V338.73Z" fill="white" fill-opacity="0.06"/>
<path d="M640.679 656.174H637.43V585.801H640.679L640.679 656.174Z" fill="white" fill-opacity="0.06"/>
<path d="M640.679 337.093H637.43V310.103H640.679V337.093Z" fill="white" fill-opacity="0.06"/>
<path d="M699.537 585.801H670.359L670.359 407.466H699.537L699.537 585.801Z" fill="white" fill-opacity="0.06"/>
<path d="M701.161 405.829H668.734L668.734 587.438L701.161 587.438L701.161 405.829ZM671.983 409.103H697.912V584.164H671.983L671.983 409.103Z" fill="white" fill-opacity="0.06"/>
<path d="M686.573 737.146H683.324V585.801H686.573L686.573 737.146Z" fill="white" fill-opacity="0.06"/>
<path d="M686.573 407.466H683.324V390.115H686.573V407.466Z" fill="white" fill-opacity="0.06"/>
<path d="M1112.55 684.705H1083.37V569.99H1112.55V684.705Z" fill="white" fill-opacity="0.06"/>
<path d="M1114.16 568.353H1081.73V686.342H1114.16V568.353ZM1084.99 571.627H1110.92V683.068H1084.99V571.627Z" fill="white" fill-opacity="0.06"/>
<path d="M1099.57 836.049H1096.32V684.705H1099.57V836.049Z" fill="white" fill-opacity="0.06"/>
<path d="M1099.57 569.99L1096.32 569.99V552.639H1099.57V569.99Z" fill="white" fill-opacity="0.06"/>
<path d="M1204.32 553.608H1175.14V395.511H1204.32L1204.32 553.608Z" fill="white" fill-opacity="0.06"/>
<path d="M1205.95 393.874H1173.52V555.246H1205.95V393.874ZM1176.77 397.148L1202.7 397.148L1202.7 551.971H1176.77L1176.77 397.148Z" fill="white" fill-opacity="0.06"/>
<path d="M1191.36 579.931H1188.11V553.598H1191.36V579.931Z" fill="white" fill-opacity="0.06"/>
<path d="M1191.36 395.511H1188.11V349.242H1191.36V395.511Z" fill="white" fill-opacity="0.06"/>
<path d="M1250.2 395.953H1221.03V281.238L1250.2 281.238V395.953Z" fill="white" fill-opacity="0.06"/>
<path d="M1251.83 279.612L1219.4 279.612V397.59H1251.83V279.612ZM1222.65 282.886L1248.58 282.886V394.316H1222.65V282.886Z" fill="white" fill-opacity="0.06"/>
<path d="M1237.24 422.286L1233.99 422.286V395.953H1237.24V422.286Z" fill="white" fill-opacity="0.06"/>
<path d="M1237.24 281.249H1233.99V221L1237.24 221V281.249Z" fill="white" fill-opacity="0.06"/>
<path d="M1341.99 410.418H1312.81V399.809H1341.99V410.418Z" fill="white" fill-opacity="0.06"/>
<path d="M1343.61 398.172L1311.18 398.172V412.055H1343.61V398.172ZM1314.44 401.446L1340.37 401.446V408.77H1314.44V401.446Z" fill="white" fill-opacity="0.06"/>
<path d="M1329.02 422.286H1325.77V410.418H1329.02V422.286Z" fill="white" fill-opacity="0.06"/>
<path d="M1329.02 399.809H1325.77V304.858H1329.02V399.809Z" fill="white" fill-opacity="0.06"/>
<path d="M1433.77 487.533L1404.59 487.533V476.924L1433.77 476.924V487.533Z" fill="white" fill-opacity="0.06"/>
<path d="M1435.4 475.298L1402.97 475.298V489.181H1435.4V475.298ZM1406.22 478.572L1432.15 478.572V485.896H1406.22V478.572Z" fill="white" fill-opacity="0.06"/>
<path d="M1420.81 551.455H1417.56V487.533H1420.81L1420.81 551.455Z" fill="white" fill-opacity="0.06"/>
<path d="M1420.81 476.935H1417.56V402.232H1420.81V476.935Z" fill="white" fill-opacity="0.06"/>
<path d="M1571.44 344.869L1542.26 344.869V334.26L1571.44 334.26V344.869Z" fill="white" fill-opacity="0.06"/>
<path d="M1573.05 332.623L1540.63 332.623V346.506H1573.05V332.623ZM1543.89 335.897L1569.82 335.897V343.232H1543.89V335.897Z" fill="white" fill-opacity="0.06"/>
<path d="M1558.47 371.192H1555.22V344.869H1558.47V371.192Z" fill="white" fill-opacity="0.06"/>
<path d="M1558.47 334.26H1555.22V253.763L1558.47 253.763V334.26Z" fill="white" fill-opacity="0.06"/>
<path d="M1387.88 476.935L1358.7 476.935V399.819H1387.88V476.935Z" fill="white" fill-opacity="0.06"/>
<path d="M1389.5 398.171H1357.07V478.561L1389.5 478.561V398.171ZM1360.32 401.446L1386.25 401.446V475.287H1360.32V401.446Z" fill="white" fill-opacity="0.06"/>
<path d="M1374.91 488.804H1371.66V476.935H1374.91V488.804Z" fill="white" fill-opacity="0.06"/>
<path d="M1374.91 399.809H1371.66V232.556L1374.91 232.556V399.809Z" fill="white" fill-opacity="0.06"/>
<path d="M1479.65 487.533H1450.47V459.573H1479.65V487.533Z" fill="white" fill-opacity="0.06"/>
<path d="M1481.28 457.947H1448.85V489.181H1481.28V457.947ZM1452.1 461.221H1478.03V485.906H1452.1V461.221Z" fill="white" fill-opacity="0.06"/>
<path d="M1466.69 496.515H1463.44V487.533H1466.69V496.515Z" fill="white" fill-opacity="0.06"/>
<path d="M1466.69 459.584H1463.44V318.363H1466.69V459.584Z" fill="white" fill-opacity="0.06"/>
<path d="M1266.92 281.243L1296.1 281.243L1296.1 410.412H1266.92V281.243Z" fill="white" fill-opacity="0.06"/>
<path d="M1297.72 279.612L1265.3 279.612V412.054H1297.72V279.612ZM1268.55 282.886H1294.48V408.78H1268.55L1268.55 282.886Z" fill="white" fill-opacity="0.06"/>
<path d="M1283.14 281.249H1279.89V263.597H1283.14V281.249Z" fill="white" fill-opacity="0.06"/>
<path d="M1283.14 453.316H1279.89V410.417H1283.14V453.316Z" fill="white" fill-opacity="0.06"/>
<path d="M1588.15 334.26L1617.33 334.26V515.492H1588.15L1588.15 334.26Z" fill="white" fill-opacity="0.06"/>
<path d="M1618.95 332.623H1586.52V517.13H1618.95V332.623ZM1589.77 335.898L1615.7 335.898V513.855L1589.77 513.855V335.898Z" fill="white" fill-opacity="0.06"/>
<path d="M1604.36 334.26H1601.11V316.608H1604.36V334.26Z" fill="white" fill-opacity="0.06"/>
<path d="M1604.36 543.926H1601.11V515.493H1604.36V543.926Z" fill="white" fill-opacity="0.06"/>
<path d="M1634.03 515.494H1663.21V690.943H1634.03V515.494Z" fill="white" fill-opacity="0.06"/>
<path d="M1664.84 513.856H1632.41V692.567H1664.84V513.856ZM1635.66 517.13H1661.59V689.293H1635.66V517.13Z" fill="white" fill-opacity="0.06"/>
<path d="M1650.25 515.493H1647V460.241H1650.25V515.493Z" fill="white" fill-opacity="0.06"/>
<path d="M1650.25 702.024H1647V690.941H1650.25V702.024Z" fill="white" fill-opacity="0.06"/>
<path d="M1679.93 690.939H1709.11V716.303H1679.93V690.939Z" fill="white" fill-opacity="0.06"/>
<path d="M1710.72 689.293H1678.3V717.931H1710.72V689.293ZM1681.55 692.567H1707.47V714.657H1681.55V692.567Z" fill="white" fill-opacity="0.06"/>
<path d="M1696.14 690.93H1692.89V618.327H1696.14V690.93Z" fill="white" fill-opacity="0.06"/>
<path d="M1696.13 793.894H1692.89V716.294H1696.14L1696.13 793.894Z" fill="white" fill-opacity="0.06"/>
<path d="M1725.81 716.295H1754.99V776.361H1725.81V716.295Z" fill="white" fill-opacity="0.06"/>
<path d="M1756.62 714.657H1724.19V778.008H1756.62V714.657ZM1727.44 717.942H1753.37V774.734H1727.44V717.942Z" fill="white" fill-opacity="0.06"/>
<path d="M1742.03 716.294H1738.78V681.291H1742.03V716.294Z" fill="white" fill-opacity="0.06"/>
<path d="M1742.03 827.939H1738.78V776.371H1742.03V827.939Z" fill="white" fill-opacity="0.06"/>
<path d="M1771.7 759.674H1800.88V776.368H1771.7V759.674Z" fill="white" fill-opacity="0.06"/>
<path d="M1802.51 758.04H1770.08V778.008H1802.51V758.04ZM1773.33 761.314H1799.26V774.734H1773.33V761.314Z" fill="white" fill-opacity="0.06"/>
<path d="M1787.92 759.677H1784.67V701.539H1787.92V759.677Z" fill="white" fill-opacity="0.06"/>
<path d="M1787.92 799.021H1784.67V776.371H1787.92V799.021Z" fill="white" fill-opacity="0.06"/>
<path d="M1909.37 591.037H1938.55V599.05H1909.37L1909.37 591.037Z" fill="white" fill-opacity="0.06"/>
<path d="M1940.17 589.409H1907.75V600.697H1940.17V589.409ZM1911.01 592.683H1936.93V597.422L1911.01 597.422V592.683Z" fill="white" fill-opacity="0.06"/>
<path d="M1925.58 591.046H1922.34L1922.34 535.795H1925.58V591.046Z" fill="white" fill-opacity="0.06"/>
<path d="M1925.58 621.709H1922.34V599.059H1925.58V621.709Z" fill="white" fill-opacity="0.06"/>
<path d="M1955.26 580.132H1984.44V591.042H1955.26V580.132Z" fill="white" fill-opacity="0.06"/>
<path d="M1986.06 578.499H1953.64V592.683H1986.06V578.499ZM1956.89 581.773H1982.81V589.398H1956.89V581.773Z" fill="white" fill-opacity="0.06"/>
<path d="M1971.48 580.136H1968.23V556.7H1971.48V580.136Z" fill="white" fill-opacity="0.06"/>
<path d="M1971.48 625.264H1968.23V591.046H1971.48V625.264Z" fill="white" fill-opacity="0.06"/>
<path d="M1863.48 599.058H1892.66V667.805H1863.48V599.058Z" fill="white" fill-opacity="0.06"/>
<path d="M1894.29 597.423H1861.86V669.444L1894.29 669.444V597.423ZM1865.11 600.697H1891.04V666.169H1865.11V600.697Z" fill="white" fill-opacity="0.06"/>
<path d="M1879.7 599.06H1876.45V572.726H1879.7V599.06Z" fill="white" fill-opacity="0.06"/>
<path d="M1879.7 730.942H1876.45V667.806H1879.7V730.942Z" fill="white" fill-opacity="0.06"/>
<path d="M1817.6 667.8H1846.77L1846.77 759.681H1817.6V667.8Z" fill="white" fill-opacity="0.06"/>
<path d="M1848.39 666.159H1815.97V761.314H1848.39V666.159ZM1819.22 669.433H1845.14L1845.14 758.04H1819.22V669.433Z" fill="white" fill-opacity="0.06"/>
<path d="M1833.8 667.795H1830.55V641.462H1833.8V667.795Z" fill="white" fill-opacity="0.06"/>
<path d="M1496.37 344.862L1525.54 344.862V459.577L1496.37 459.577V344.862Z" fill="white" fill-opacity="0.06"/>
<path d="M1527.17 343.232H1494.74V461.221H1527.17V343.232ZM1497.99 346.506H1523.92V457.947H1497.99V346.506Z" fill="white" fill-opacity="0.06"/>
<path d="M1512.58 344.869H1509.33V330.103H1512.58V344.869Z" fill="white" fill-opacity="0.06"/>
<path d="M1512.58 476.45H1509.33V459.584H1512.58V476.45Z" fill="white" fill-opacity="0.06"/>
<path d="M1158.43 569.99H1129.25V553.598H1158.43V569.99Z" fill="white" fill-opacity="0.06"/>
<path d="M1160.05 551.972H1127.63V571.638H1160.05L1160.05 551.972ZM1130.88 555.246H1156.81V568.353H1130.88V555.246Z" fill="white" fill-opacity="0.06"/>
<path d="M1145.47 610.659H1142.22V569.99H1145.47V610.659Z" fill="white" fill-opacity="0.06"/>
<path d="M1145.47 553.609H1142.22V487.091H1145.47V553.609Z" fill="white" fill-opacity="0.06"/>
<path d="M745.431 552.607H716.253V407.466H745.431V552.607Z" fill="white" fill-opacity="0.06"/>
<path d="M747.055 405.829L714.628 405.829V554.244H747.055V405.829ZM717.877 409.104H743.806V550.97H717.877V409.104Z" fill="white" fill-opacity="0.06"/>
<path d="M732.468 633.858H729.218V552.618H732.468V633.858Z" fill="white" fill-opacity="0.06"/>
<path d="M732.468 407.466H729.218V382.738H732.468V407.466Z" fill="white" fill-opacity="0.06"/>
<path d="M837.21 631.09L808.032 631.09V566.447H837.21V631.09Z" fill="white" fill-opacity="0.06"/>
<path d="M838.833 564.81L806.406 564.81V632.727L838.833 632.727V564.81ZM809.655 568.084H835.584V629.453H809.655L809.655 568.084Z" fill="white" fill-opacity="0.06"/>
<path d="M824.244 712.342H820.995V631.101H824.244V712.342Z" fill="white" fill-opacity="0.06"/>
<path d="M824.244 566.447H820.995V554.083H824.244V566.447Z" fill="white" fill-opacity="0.06"/>
<path d="M899.808 552.075H928.986V622.502H899.808V552.075Z" fill="white" fill-opacity="0.06"/>
<path d="M930.609 550.431L898.182 550.431L898.182 624.133L930.609 624.133V550.431ZM901.431 553.706H927.36V620.858H901.431V553.706Z" fill="white" fill-opacity="0.06"/>
<path d="M916.021 552.068H912.772V470.828H916.021L916.021 552.068Z" fill="white" fill-opacity="0.06"/>
<path d="M916.021 643.541L912.772 643.541V622.506H916.021V643.541Z" fill="white" fill-opacity="0.06"/>
<path d="M991.588 515.952H1020.77V554.564H991.588L991.588 515.952Z" fill="white" fill-opacity="0.06"/>
<path d="M1022.38 514.319H989.958V556.204H1022.38V514.319ZM993.207 517.593H1019.14V552.93H993.207L993.207 517.593Z" fill="white" fill-opacity="0.06"/>
<path d="M1007.8 515.956H1004.55V496.881H1007.8V515.956Z" fill="white" fill-opacity="0.06"/>
<path d="M1007.8 575.602H1004.55V554.567H1007.8V575.602Z" fill="white" fill-opacity="0.06"/>
<path d="M1037.47 646.093H1066.65V684.704H1037.47V646.093Z" fill="white" fill-opacity="0.06"/>
<path d="M1068.28 644.456L1035.85 644.456V686.342H1068.28V644.456ZM1039.1 647.73H1065.03V683.068L1039.1 683.068V647.73Z" fill="white" fill-opacity="0.06"/>
<path d="M1053.69 646.093H1050.44V621.236H1053.69V646.093Z" fill="white" fill-opacity="0.06"/>
<path d="M1053.69 723.101H1050.44L1050.44 684.716H1053.69V723.101Z" fill="white" fill-opacity="0.06"/>
<path d="M945.692 515.958H974.87V551.683L945.692 551.683V515.958Z" fill="white" fill-opacity="0.06"/>
<path d="M976.501 514.319H944.074V553.318H976.501V514.319ZM947.323 517.593H973.252V550.044H947.323V517.593Z" fill="white" fill-opacity="0.06"/>
<path d="M961.912 515.956H958.663V482.912H961.912V515.956Z" fill="white" fill-opacity="0.06"/>
<path d="M791.311 566.985L762.133 566.985V552.607H791.311V566.985Z" fill="white" fill-opacity="0.06"/>
<path d="M792.937 550.97L760.51 550.97V568.622H792.937V550.97ZM763.759 554.244L789.688 554.244V565.348H763.759V554.244Z" fill="white" fill-opacity="0.06"/>
<path d="M778.349 644.822H775.1V566.985H778.349V644.822Z" fill="white" fill-opacity="0.06"/>
<path d="M778.349 552.607H775.1V454.92H778.349V552.607Z" fill="white" fill-opacity="0.06"/>
<path d="M883.1 631.09H853.923V622.495H883.1V631.09Z" fill="white" fill-opacity="0.06"/>
<path d="M884.714 620.858H852.287V632.727H884.714V620.858ZM855.546 624.132H881.475V629.453H855.546V624.132Z" fill="white" fill-opacity="0.06"/>
<path d="M870.126 649.647H866.877V631.09H870.126V649.647Z" fill="white" fill-opacity="0.06"/>
<path d="M870.126 622.495H866.877V505.53H870.126V622.495Z" fill="white" fill-opacity="0.06"/>
</g>
<defs>
<linearGradient id="paint0_linear" x1="70.5" y1="0" x2="70.5" y2="581" gradientUnits="userSpaceOnUse">
<stop stop-color="white" stop-opacity="0"/>
<stop offset="1" stop-color="white"/>
</linearGradient>
<linearGradient id="paint1_linear" x1="70.5" y1="0" x2="70.5" y2="581" gradientUnits="userSpaceOnUse">
<stop stop-color="white" stop-opacity="0"/>
<stop offset="1" stop-color="white"/>
</linearGradient>
<linearGradient id="paint2_linear" x1="70.5" y1="0" x2="70.5" y2="581" gradientUnits="userSpaceOnUse">
<stop stop-color="white" stop-opacity="0"/>
<stop offset="1" stop-color="white"/>
</linearGradient>
<linearGradient id="paint3_linear" x1="70.5" y1="0" x2="70.5" y2="581" gradientUnits="userSpaceOnUse">
<stop stop-color="white" stop-opacity="0"/>
<stop offset="1" stop-color="white"/>
</linearGradient>
<linearGradient id="paint4_linear" x1="70.5" y1="0" x2="70.5" y2="421" gradientUnits="userSpaceOnUse">
<stop stop-color="white" stop-opacity="0"/>
<stop offset="1" stop-color="white"/>
</linearGradient>
<linearGradient id="paint5_linear" x1="70.5" y1="0" x2="70.5" y2="469" gradientUnits="userSpaceOnUse">
<stop stop-color="white" stop-opacity="0"/>
<stop offset="1" stop-color="white"/>
</linearGradient>
<linearGradient id="paint6_linear" x1="70.5" y1="0" x2="70.5" y2="469" gradientUnits="userSpaceOnUse">
<stop stop-color="white" stop-opacity="0"/>
<stop offset="1" stop-color="white"/>
</linearGradient>
<linearGradient id="paint7_linear" x1="70.5" y1="0" x2="70.5" y2="469" gradientUnits="userSpaceOnUse">
<stop stop-color="white" stop-opacity="0"/>
<stop offset="1" stop-color="white"/>
</linearGradient>
<linearGradient id="paint8_linear" x1="2449.61" y1="725.273" x2="-295.53" y2="2645.55" gradientUnits="userSpaceOnUse">
<stop stop-color="#8E72E9"/>
<stop offset="1" stop-color="#617FF9"/>
</linearGradient>
<linearGradient id="paint9_linear" x1="2449.61" y1="725.273" x2="-295.53" y2="2645.55" gradientUnits="userSpaceOnUse">
<stop stop-color="#8E72E9"/>
<stop offset="1" stop-color="#617FF9"/>
</linearGradient>
<clipPath id="clip0">
<rect width="1920" height="859" fill="white"/>
</clipPath>
</defs>
</svg>
