<svg width="320" height="1051" viewBox="0 0 320 1051" fill="none" xmlns="http://www.w3.org/2000/svg">
<mask id="mask0" mask-type="alpha" maskUnits="userSpaceOnUse" x="0" y="0" width="320" height="1051">
<rect width="320" height="1051" fill="white"/>
</mask>
<g mask="url(#mask0)">
<path d="M-155.327 664.395C-177.776 619.647 -177.776 566.927 -155.327 522.179L-6.22968 224.979C20.6699 171.36 75.5237 137.509 135.512 137.509L397.095 137.509C457.084 137.509 511.938 171.36 538.838 224.979L687.935 522.178C710.384 566.926 710.384 619.647 687.935 664.395L538.838 961.595C511.938 1015.21 457.084 1049.07 397.096 1049.07L135.513 1049.07C75.5238 1049.07 20.6699 1015.21 -6.22964 961.595L-155.327 664.395Z" fill="#EEF3F7"/>
<path d="M-545.582 -84.7957C-537.293 -142.31 -488.009 -185 -429.9 -185H872.72C936.534 -185 988.266 -133.268 988.266 -69.4536C988.266 -30.3174 968.456 6.15878 935.629 27.4663L346.944 409.569C320.957 426.436 289.336 432.296 259.031 425.86L-352.333 296.024C-384.137 289.27 -411.69 269.573 -428.372 241.667L-539.445 55.8619C-553.211 32.8346 -558.636 5.77248 -554.809 -20.7814L-545.582 -84.7957Z" fill="#E7EBFE"/>
<path d="M-545.582 -84.7957C-537.293 -142.31 -488.009 -185 -429.9 -185H872.72C936.534 -185 988.266 -133.268 988.266 -69.4536C988.266 -30.3174 968.456 6.15878 935.629 27.4663L346.944 409.569C320.957 426.436 289.336 432.296 259.031 425.86L-352.333 296.024C-384.137 289.27 -411.69 269.573 -428.372 241.667L-539.445 55.8619C-553.211 32.8346 -558.636 5.77248 -554.809 -20.7814L-545.582 -84.7957Z" fill="url(#paint0_linear)"/>
<path opacity="0.05" d="M-147.079 -99.2452C-128.626 -117.699 -101.729 -124.906 -76.5201 -118.152L50.7475 -84.0503C75.9559 -77.2958 95.6459 -57.6057 102.4 -32.3973L136.502 94.8702C143.256 120.079 136.049 146.976 117.595 165.43L24.4291 258.596C5.97525 277.05 -20.9218 284.257 -46.1302 277.502L-173.398 243.401C-198.606 236.646 -218.296 216.956 -225.051 191.748L-259.152 64.4804C-265.907 39.272 -258.7 12.3749 -240.246 -6.07893L-147.079 -99.2452Z" fill="white"/>
<path opacity="0.05" d="M287.921 109.754C306.374 91.2999 333.271 84.0929 358.48 90.8474L485.747 124.949C510.956 131.703 530.646 151.393 537.4 176.602L571.502 303.869C578.256 329.078 571.049 355.975 552.595 374.429L459.429 467.595C440.975 486.049 414.078 493.256 388.87 486.501L261.602 452.4C236.394 445.645 216.704 425.955 209.949 400.747L175.848 273.479C169.093 248.271 176.3 221.374 194.754 202.92L287.921 109.754Z" fill="white"/>
</g>
<defs>
<linearGradient id="paint0_linear" x1="-473.797" y1="152.561" x2="925.079" y2="152.561" gradientUnits="userSpaceOnUse">
<stop stop-color="#8E72E9"/>
<stop offset="1" stop-color="#617FF9"/>
</linearGradient>
</defs>
</svg>
