<svg width="1920" height="1555" viewBox="0 0 1920 1555" fill="none" xmlns="http://www.w3.org/2000/svg">
<mask id="mask0" mask-type="alpha" maskUnits="userSpaceOnUse" x="0" y="0" width="1920" height="1555">
<rect width="1920" height="1555" fill="white"/>
</mask>
<g mask="url(#mask0)">
<path d="M-381.447 -429.852C-406.929 -553.534 -372.511 -681.986 -288.601 -776.357L608.168 -1784.93C708.713 -1898.01 864.462 -1944.68 1010.62 -1905.51L2090.53 -1616.15C2236.69 -1576.99 2348.24 -1458.7 2378.77 -1310.5L2651.11 11.3363C2676.59 135.018 2642.17 263.47 2558.26 357.841L1661.49 1366.42C1560.95 1479.5 1405.2 1526.16 1259.04 1487L179.134 1197.64C32.9742 1158.48 -78.5754 1040.19 -109.11 891.985L-381.447 -429.852Z" fill="#EEF3F7"/>
<path d="M-89.7708 47.1753C-78.4229 -31.5595 -10.9556 -90 68.5928 -90H1851.82C1939.18 -90 2010 -19.1813 2010 68.1779C2010 121.754 1982.88 171.688 1937.94 200.857L1132.06 723.938C1096.48 747.029 1053.2 755.051 1011.71 746.24L174.779 568.5C131.241 559.254 93.5222 532.291 70.6846 494.088L-81.3698 239.729C-100.214 208.206 -107.64 171.159 -102.401 134.808L-89.7708 47.1753Z" fill="#E7EBFE"/>
<path d="M-89.7708 47.1753C-78.4229 -31.5595 -10.9556 -90 68.5928 -90H1851.82C1939.18 -90 2010 -19.1813 2010 68.1779C2010 121.754 1982.88 171.688 1937.94 200.857L1132.06 723.938C1096.48 747.029 1053.2 755.051 1011.71 746.24L174.779 568.5C131.241 559.254 93.5222 532.291 70.6846 494.088L-81.3698 239.729C-100.214 208.206 -107.64 171.159 -102.401 134.808L-89.7708 47.1753Z" fill="url(#paint0_linear)"/>
<path opacity="0.05" d="M230.544 -409.812C255.807 -435.075 292.627 -444.941 327.137 -435.694L673.14 -342.983C707.649 -333.736 734.604 -306.781 743.851 -272.272L836.562 73.731C845.809 108.24 835.943 145.061 810.68 170.324L557.388 423.616C532.126 448.878 495.305 458.744 460.795 449.497L114.792 356.786C80.283 347.539 53.3282 320.585 44.0815 286.075L-48.6298 -59.9278C-57.8765 -94.437 -48.0104 -131.258 -22.7479 -156.52L230.544 -409.812Z" fill="white"/>
<path opacity="0.5" d="M176.5 931.868C207.44 914.004 245.56 914.004 276.5 931.868L465.319 1040.88C496.26 1058.75 515.319 1091.76 515.319 1127.49V1345.51C515.319 1381.24 496.26 1414.25 465.319 1432.12L276.5 1541.13C245.56 1559 207.44 1559 176.5 1541.13L-12.3195 1432.12C-43.2596 1414.25 -62.3195 1381.24 -62.3195 1345.51L-62.3195 1127.49C-62.3195 1091.76 -43.2596 1058.75 -12.3195 1040.88L176.5 931.868Z" fill="url(#paint1_linear)"/>
<path opacity="0.05" d="M1002.06 127.768C1011.3 93.2585 1038.26 66.3037 1072.77 57.057L1429.78 -38.6039C1464.29 -47.8506 1501.11 -37.9845 1526.37 -12.722L1787.72 248.628C1812.98 273.891 1822.85 310.712 1813.6 345.221L1717.94 702.232C1708.7 736.741 1681.74 763.696 1647.23 772.943L1290.22 868.604C1255.71 877.851 1218.89 867.984 1193.63 842.722L932.278 581.372C907.016 556.109 897.15 519.288 906.396 484.779L1002.06 127.768Z" fill="white"/>
</g>
<defs>
<linearGradient id="paint0_linear" x1="8.49999" y1="372.106" x2="1923.5" y2="372.106" gradientUnits="userSpaceOnUse">
<stop stop-color="#8E72E9"/>
<stop offset="1" stop-color="#617FF9"/>
</linearGradient>
<linearGradient id="paint1_linear" x1="-69.5687" y1="1265.62" x2="532.792" y2="1265.62" gradientUnits="userSpaceOnUse">
<stop stop-color="#8E72E9"/>
<stop offset="1" stop-color="#617FF9"/>
</linearGradient>
</defs>
</svg>
