<svg width="24" height="24" viewBox="0 0 24 24" fill="none" xmlns="http://www.w3.org/2000/svg">
<path d="M21 17.6C19.0105 16.545 17.4845 15.9534 16.1261 15.7266L16.2667 15.5334C16.3334 15.4667 16.3667 15.3667 16.3334 15.2667L16.021 14.0172C16.1342 13.8571 16.241 13.6917 16.341 13.5216C17.5832 13.0988 18.2114 12.3841 18.3169 11.332C18.8625 11.3035 19.3333 10.8165 19.3333 10.2667V7.76668C19.3333 7.21934 18.8979 6.7343 18.3275 6.70184C18.2541 4.77621 17.405 1 12 1C6.59488 1 5.7459 4.77637 5.6725 6.70195C5.13137 6.73391 4.66668 7.18824 4.66668 7.76664V10.2666C4.66668 10.8333 5.16668 11.3333 5.76668 11.3333H6.26668C6.45043 11.3333 6.62703 11.2805 6.78086 11.1901C6.96988 12.1934 7.38703 13.1803 7.97906 14.0171L7.66668 15.2666C7.66668 15.3333 7.66668 15.4333 7.73336 15.5333L7.87394 15.7266C6.51551 15.9534 4.98949 16.545 3.00004 17.6C2.36668 17.9 2 18.5333 2 19.2333V20.6666C2 20.8667 2.13332 21 2.33332 21H10.3333H10.4666H13.5333H13.6666H21.6666C21.8666 21 22 20.8667 22 20.6667V19.2334C22 18.5667 21.6 17.9333 21 17.6ZM12.0018 16.8375L12.8 18.6667H11.1889L12.0018 16.8375ZM10.9467 19.3333H13.052L13.2471 20.3333H10.7466L10.9467 19.3333ZM15.5 14.6667L15.6333 15.2667L15.2928 15.7342C15.2711 15.752 15.251 15.7735 15.2333 15.8L13.8468 17.7198L13.4069 18.3239L12.5082 16.302C13.6043 16.1683 14.5803 15.6097 15.3628 14.8093C15.4091 14.7627 15.4548 14.7153 15.5 14.6667ZM16.8016 12.5931C16.9896 12.1357 17.1313 11.6602 17.2209 11.1809C17.3479 11.2577 17.4923 11.3091 17.6481 11.3265C17.5904 11.7977 17.381 12.2425 16.8016 12.5931ZM18.6333 7.73332V10.2333C18.6333 10.4333 18.4666 10.6333 18.2333 10.6333H17.7333C17.5333 10.6333 17.3333 10.4666 17.3333 10.2333V10V7.73332C17.3333 7.53332 17.5 7.33332 17.7333 7.33332H18.2333C18.4333 7.33332 18.6333 7.5 18.6333 7.73332ZM12 1.66668C14.0546 1.66668 17.5124 2.33738 17.6611 6.70543C17.5214 6.71977 17.3876 6.76223 17.2666 6.82746C16.861 4.28914 14.6479 2.33332 12 2.33332C9.35242 2.33332 7.13961 4.28859 6.73355 6.82637C6.61434 6.76199 6.48121 6.71945 6.33887 6.70531C6.48762 2.33738 9.94547 1.66668 12 1.66668ZM6.63332 10.2333C6.63332 10.4333 6.46664 10.6333 6.23332 10.6333H5.73332C5.53332 10.6333 5.33332 10.4666 5.33332 10.2333V7.73332C5.33332 7.53332 5.5 7.33332 5.73332 7.33332H6.23332C6.43332 7.33332 6.63332 7.5 6.63332 7.73332V10.2333ZM7.33332 7.66668C7.33332 5.1 9.43332 3 12 3C14.5667 3 16.6667 5.1 16.6667 7.66668V10C16.6667 11.1028 16.3796 12.1125 15.9141 12.9643C15.1185 13.1951 13.9739 13.3333 12.3334 13.3333C12.1334 13.3333 12 13.4666 12 13.6666C12 13.8666 12.1334 14 12.3334 14C13.5343 14 14.5387 13.9262 15.3613 13.772C15.3409 13.7925 15.3204 13.8129 15.3 13.8333C15.1323 14.0569 14.9553 14.2608 14.7704 14.4446C13.9855 15.1758 13.0494 15.6188 12.1473 15.6626C12.1019 15.6431 12.051 15.6333 12 15.6333C11.9487 15.6333 11.9026 15.6434 11.8612 15.663C11.309 15.6377 10.7439 15.4627 10.2082 15.1633C9.66551 14.8515 9.155 14.402 8.7 13.8333C8.66668 13.8 8.63332 13.7666 8.6 13.7333L8.58055 13.7268C7.83195 12.745 7.33332 11.4534 7.33332 10V7.66668ZM11.4917 16.302L10.5931 18.3239L10.1532 17.7198L8.76664 15.8C8.75601 15.7894 8.7443 15.7789 8.73211 15.7685L8.36664 15.2667L8.49996 14.6667C8.54508 14.7153 8.59086 14.7626 8.63703 14.8092C9.41961 15.6096 10.3957 16.1682 11.4917 16.302ZM2.66668 19.2333C2.66668 18.8 2.9 18.4 3.3 18.2C5.42473 17.0713 6.95422 16.5047 8.31672 16.3355L10.3059 19.0706L10.0533 20.3333H2.66668V19.2333ZM21.3333 20.3333H13.9467L13.6941 19.0706L15.7048 16.3059C17.0625 16.5107 18.6195 17.0768 20.7 18.1666C21.1 18.4 21.3334 18.8 21.3334 19.2333V20.3333H21.3333Z" fill="white"/>
</svg>
