<svg width="24" height="24" viewBox="0 0 24 24" fill="none" xmlns="http://www.w3.org/2000/svg">
<g clip-path="url(#clip0)">
<path d="M20.9827 10.0747C20.1708 8.4653 18.9455 7.15083 17.438 6.24329L17.9627 4.64996L18.4224 4.80136C18.5113 4.83052 18.6027 4.84505 18.6938 4.84505C18.8284 4.84505 18.9623 4.81336 19.0863 4.75079C19.2943 4.64574 19.4487 4.46654 19.521 4.24651L19.9343 2.9919C20.0841 2.5358 19.8351 2.04296 19.3794 1.89329L15.976 0.772532C15.7916 0.711829 15.5929 0.812095 15.5322 0.996548C15.4715 1.18095 15.5718 1.37966 15.7562 1.44036L19.1598 2.56121C19.2459 2.58943 19.2947 2.68627 19.2664 2.77224L18.8531 4.02685C18.8346 4.08324 18.7927 4.11141 18.7694 4.12313C18.746 4.13494 18.6983 4.15186 18.6419 4.13344L13.7072 2.50838C13.6513 2.49001 13.6235 2.44852 13.6119 2.42541C13.6001 2.40197 13.5832 2.35421 13.6018 2.29735L14.0152 1.04274C14.0337 0.986396 14.0756 0.958177 14.0989 0.946459C14.1223 0.93474 14.1699 0.917724 14.2262 0.936099L15.976 1.5128C16.1603 1.5736 16.3591 1.47333 16.4199 1.28897C16.4807 1.10457 16.3804 0.905865 16.1961 0.845068L14.4459 0.268224C14.2256 0.19599 13.9899 0.213896 13.782 0.318849C13.574 0.423896 13.4195 0.603052 13.3473 0.823084L12.934 2.07769C12.7841 2.53397 13.0325 3.02686 13.4875 3.1763L13.9476 3.3278L13.4222 4.92029C12.7053 4.85302 11.9819 4.86905 11.2572 4.96955C11.0649 4.99618 10.9306 5.17369 10.9573 5.36597C10.9839 5.5583 11.1618 5.69288 11.3537 5.66593C12.6804 5.48208 14.0025 5.60283 15.2837 6.02494C17.5021 6.75577 19.3031 8.30644 20.3549 10.3913C21.4068 12.4762 21.5835 14.8458 20.8527 17.0636C19.3454 21.6418 14.3937 24.14 9.81439 22.6327C7.59669 21.9025 5.79612 20.3521 4.74443 18.2669C3.69275 16.1817 3.51598 13.812 4.24681 11.5941C5.10992 8.97179 7.11973 6.71961 11.13 5.80126C11.3143 5.74041 11.4145 5.54166 11.3537 5.35726C11.2929 5.17294 11.0943 5.07282 10.9097 5.13352C10.3131 5.3303 8.42745 5.8088 7.88117 6.11958H5.06483C4.87067 6.11958 4.71331 6.27694 4.71331 6.4711C4.71331 6.66526 4.87067 6.82261 5.06483 6.82261H6.81814C6.50455 7.0613 6.20553 7.31855 5.92493 7.59408C4.94342 8.55807 4.17823 9.7441 3.69654 11.0409H1.23842C1.04426 11.0409 0.8869 11.1983 0.8869 11.3925C0.8869 11.5866 1.04426 11.744 1.23842 11.744H3.46606C3.06907 13.1333 2.99642 14.5689 3.24232 15.961H-0.512742C-0.706898 15.961 -0.864258 16.1184 -0.864258 16.3126C-0.864258 16.5067 -0.706898 16.6641 -0.512742 16.6641H3.39481C3.56356 17.3206 3.80421 17.9637 4.11678 18.5835C4.54817 19.4388 5.09647 20.2105 5.74147 20.8824H2.58167C2.38751 20.8824 2.23015 21.0398 2.23015 21.234C2.23015 21.4281 2.38751 21.5855 2.58167 21.5855H6.49583C7.39864 22.3384 8.44447 22.9218 9.59459 23.3004C10.572 23.6222 11.5646 23.775 12.5417 23.775C16.5102 23.7747 20.2138 21.2525 21.5205 17.2835C22.3102 14.8874 22.1192 12.3272 20.9827 10.0747ZM14.1313 5.01488L14.6154 3.54774L17.2948 4.43011L16.8116 5.89772C16.3933 5.6874 15.9567 5.50646 15.5038 5.35726C15.0507 5.20796 14.5927 5.09424 14.1313 5.01488Z" fill="white" stroke="white" stroke-width="0.2"/>
<path d="M5.484 12.0028C4.20155 15.8988 6.32733 20.1117 10.2226 21.3939C10.9881 21.6461 11.7747 21.7713 12.5579 21.7713C13.7054 21.7713 14.8455 21.5024 15.8999 20.9706C17.6737 20.0759 18.9931 18.5438 19.6149 16.6565C19.6159 16.6535 19.6169 16.6505 19.6178 16.6475L19.6206 16.6384C20.8914 12.7486 18.7642 8.54417 14.877 7.2642C14.1608 7.02542 13.4051 6.89862 12.6503 6.88751C11.8917 6.87631 11.1324 6.98379 10.4064 7.20392C9.99094 7.32987 9.58664 7.49234 9.19908 7.6879C7.42528 8.58298 6.10589 10.1153 5.484 12.0028ZM19.0518 16.0863L14.0698 14.4455C14.094 14.1671 14.041 13.8867 13.912 13.6309C13.7829 13.375 13.5889 13.1657 13.3506 13.0198L14.9874 8.05029C18.1883 9.2907 19.9494 12.7729 19.0518 16.0863ZM12.9223 15.0471C12.727 15.1456 12.5051 15.1621 12.2973 15.0938C11.8687 14.9528 11.6348 14.4891 11.7759 14.0601C11.8891 13.7162 12.21 13.4976 12.5541 13.4976C12.6386 13.4976 12.7246 13.5109 12.8091 13.5386C12.8093 13.5387 12.8093 13.5387 12.8095 13.5387C12.8096 13.5388 12.8097 13.5388 12.8099 13.5388C13.0173 13.6072 13.1858 13.7523 13.2842 13.9474C13.3826 14.1425 13.3992 14.3645 13.331 14.5722C13.331 14.5722 13.331 14.5723 13.3309 14.5724C13.3309 14.5725 13.3309 14.5726 13.3308 14.5727C13.2625 14.7802 13.1175 14.9487 12.9223 15.0471ZM12.5426 7.59007C13.137 7.59007 13.7338 7.67014 14.3196 7.8305L12.6827 12.8C12.4042 12.7758 12.1238 12.8288 11.868 12.9578C11.7812 13.0016 11.6999 13.0531 11.6244 13.111L9.27933 10.9733C9.1358 10.8425 8.91347 10.8528 8.78269 10.9963C8.65191 11.1398 8.66222 11.3621 8.80566 11.4929L11.1815 13.6586C11.1535 13.7172 11.1287 13.7777 11.1081 13.8404C10.9811 14.2265 11.0119 14.6389 11.1949 15.0018C11.378 15.3648 11.6915 15.6347 12.0775 15.7617C12.1785 15.7949 12.2813 15.8161 12.3844 15.8279L12.5039 16.8504C12.5248 17.0294 12.6766 17.1612 12.8526 17.1612C12.8662 17.1612 12.88 17.1604 12.8938 17.1588C13.0867 17.1363 13.2247 16.9617 13.2022 16.7688L13.0823 15.743C13.1354 15.7233 13.1876 15.7007 13.2389 15.6749C13.4947 15.5458 13.704 15.3518 13.8499 15.1134L18.8335 16.7547C18.2754 18.2052 17.2497 19.4001 15.9015 20.1714L15.5093 19.3937C15.4218 19.2203 15.2104 19.1506 15.0371 19.2381C14.8638 19.3255 14.7941 19.5369 14.8815 19.7102L15.2743 20.4891C13.8522 21.1201 12.2798 21.2383 10.7793 20.8275L11.053 19.9968C11.1138 19.8124 11.0136 19.6137 10.8292 19.5529C10.6446 19.4921 10.446 19.5924 10.3853 19.7768L10.1115 20.6076C8.62144 20.0303 7.44385 18.968 6.70083 17.6632L7.4761 17.2722C7.64944 17.1848 7.7191 16.9735 7.63167 16.8001C7.5443 16.6267 7.33285 16.557 7.15955 16.6445L6.38513 17.0351C5.78166 15.6623 5.63063 14.0855 6.05419 12.5458L6.87286 12.8159C6.90942 12.828 6.94655 12.8337 6.98302 12.8337C7.13063 12.8337 7.26802 12.74 7.31677 12.5922C7.37761 12.4079 7.27744 12.2091 7.09308 12.1483L6.27549 11.8786C6.83817 10.4337 7.86549 9.24415 9.2138 8.47747L9.59892 9.23923C9.6608 9.36162 9.78455 9.43226 9.91294 9.43226C9.96628 9.43226 10.0204 9.42003 10.0713 9.39434C10.2445 9.30673 10.314 9.09528 10.2264 8.92203L9.84211 8.16186C10.7041 7.78217 11.6205 7.59007 12.5426 7.59007Z" fill="white" stroke="white" stroke-width="0.2"/>
</g>
<defs>
<clipPath id="clip0">
<rect width="24" height="24" fill="white"/>
</clipPath>
</defs>
</svg>
